<svg aria-hidden="true" style="position: absolute; width: 0; height: 0; overflow: hidden;" version="1.1" xmlns="http://www.w3.org/2000/svg" xmlns:xlink="http://www.w3.org/1999/xlink">
<defs>
<symbol id="icon-like" viewBox="0 0 32 32">
<path d="M29.164 10.472c-1.25-0.328-4.189-0.324-8.488-0.438 0.203-0.938 0.25-1.784 0.25-3.286 0-3.588-2.614-6.748-4.926-6.748-1.633 0-2.979 1.335-3 2.977-0.022 2.014-0.645 5.492-4 7.256-0.246 0.13-0.95 0.477-1.053 0.522l0.053 0.045c-0.525-0.453-1.253-0.8-2-0.8h-3c-1.654 0-3 1.346-3 3v16c0 1.654 1.346 3 3 3h3c1.19 0 2.186-0.719 2.668-1.727 0.012 0.004 0.033 0.010 0.047 0.012 0.066 0.018 0.144 0.037 0.239 0.062 0.018 0.005 0.027 0.007 0.046 0.012 0.576 0.143 1.685 0.408 4.055 0.953 0.508 0.116 3.192 0.688 5.972 0.688h5.467c1.666 0 2.867-0.641 3.582-1.928 0.010-0.020 0.24-0.469 0.428-1.076 0.141-0.457 0.193-1.104 0.023-1.76 1.074-0.738 1.42-1.854 1.645-2.58 0.377-1.191 0.264-2.086 0.002-2.727 0.604-0.57 1.119-1.439 1.336-2.766 0.135-0.822-0.010-1.668-0.389-2.372 0.566-0.636 0.824-1.436 0.854-2.176l0.012-0.209c0.007-0.131 0.013-0.212 0.013-0.5 0-1.263-0.875-2.874-2.836-3.434zM7 29c0 0.553-0.447 1-1 1h-3c-0.553 0-1-0.447-1-1v-16c0-0.553 0.447-1 1-1h3c0.553 0 1 0.447 1 1v16zM29.977 14.535c-0.020 0.494-0.227 1.465-1.977 1.465-1.5 0-2 0-2 0-0.277 0-0.5 0.224-0.5 0.5s0.223 0.5 0.5 0.5c0 0 0.438 0 1.938 0s1.697 1.244 1.6 1.844c-0.124 0.746-0.474 2.156-2.163 2.156-1.687 0-2.375 0-2.375 0-0.277 0-0.5 0.223-0.5 0.5 0 0.275 0.223 0.5 0.5 0.5 0 0 1.188 0 1.969 0 1.688 0 1.539 1.287 1.297 2.055-0.319 1.009-0.514 1.945-2.641 1.945-0.719 0-1.631 0-1.631 0-0.277 0-0.5 0.223-0.5 0.5 0 0.275 0.223 0.5 0.5 0.5 0 0 0.693 0 1.568 0 1.094 0 1.145 1.035 1.031 1.406-0.125 0.406-0.273 0.707-0.279 0.721-0.302 0.545-0.789 0.873-1.82 0.873h-5.467c-2.746 0-5.47-0.623-5.54-0.639-4.154-0.957-4.373-1.031-4.634-1.105 0 0-0.846-0.143-0.846-0.881l-0.007-13.812c0-0.469 0.299-0.893 0.794-1.042 0.062-0.024 0.146-0.050 0.206-0.075 4.568-1.892 5.959-6.040 6-9.446 0.006-0.479 0.375-1 1-1 1.057 0 2.926 2.122 2.926 4.748 0 2.371-0.096 2.781-0.926 5.252 10 0 9.93 0.144 10.812 0.375 1.094 0.313 1.188 1.219 1.188 1.531 0 0.343-0.010 0.293-0.023 0.629zM4.5 26c-0.828 0-1.5 0.672-1.5 1.5s0.672 1.5 1.5 1.5 1.5-0.672 1.5-1.5-0.672-1.5-1.5-1.5zM4.5 28c-0.275 0-0.5-0.225-0.5-0.5s0.225-0.5 0.5-0.5 0.5 0.225 0.5 0.5-0.225 0.5-0.5 0.5z"></path>
</symbol>
<symbol id="icon-youtube" viewBox="0 0 24 24">
<path d="M21.563 6.637c0.287 1.529 0.448 3.295 0.437 5.125 0.019 1.528-0.123 3.267-0.437 5.021-0.057 0.208-0.15 0.403-0.272 0.575-0.227 0.321-0.558 0.565-0.949 0.675-0.604 0.161-2.156 0.275-3.877 0.341-2.23 0.086-4.465 0.086-4.465 0.086s-2.235 0-4.465-0.085c-1.721-0.066-3.273-0.179-3.866-0.338-0.205-0.057-0.396-0.149-0.566-0.268-0.311-0.22-0.55-0.536-0.67-0.923-0.285-1.526-0.444-3.286-0.433-5.11-0.021-1.54 0.121-3.292 0.437-5.060 0.057-0.208 0.15-0.403 0.272-0.575 0.227-0.321 0.558-0.565 0.949-0.675 0.604-0.161 2.156-0.275 3.877-0.341 2.23-0.085 4.465-0.085 4.465-0.085s2.235 0 4.466 0.078c1.719 0.060 3.282 0.163 3.856 0.303 0.219 0.063 0.421 0.165 0.598 0.299 0.307 0.232 0.538 0.561 0.643 0.958zM23.51 6.177c-0.217-0.866-0.718-1.59-1.383-2.093-0.373-0.282-0.796-0.494-1.249-0.625-0.898-0.22-2.696-0.323-4.342-0.38-2.267-0.079-4.536-0.079-4.536-0.079s-2.272 0-4.541 0.087c-1.642 0.063-3.45 0.175-4.317 0.407-0.874 0.247-1.581 0.77-2.064 1.45-0.27 0.381-0.469 0.811-0.587 1.268-0.006 0.024-0.011 0.049-0.015 0.071-0.343 1.898-0.499 3.793-0.476 5.481-0.012 1.924 0.161 3.831 0.477 5.502 0.006 0.031 0.013 0.062 0.021 0.088 0.245 0.86 0.77 1.567 1.451 2.048 0.357 0.252 0.757 0.443 1.182 0.561 0.879 0.235 2.686 0.347 4.328 0.41 2.269 0.087 4.541 0.087 4.541 0.087s2.272 0 4.541-0.087c1.642-0.063 3.449-0.175 4.317-0.407 0.873-0.247 1.581-0.77 2.063-1.45 0.27-0.381 0.47-0.811 0.587-1.267 0.006-0.025 0.012-0.050 0.015-0.071 0.34-1.884 0.496-3.765 0.476-5.44 0.012-1.925-0.161-3.833-0.477-5.504-0.004-0.020-0.008-0.040-0.012-0.057zM10.75 13.301v-3.102l2.727 1.551zM10.244 15.889l5.75-3.27c0.48-0.273 0.648-0.884 0.375-1.364-0.093-0.164-0.226-0.292-0.375-0.375l-5.75-3.27c-0.48-0.273-1.091-0.105-1.364 0.375-0.090 0.158-0.132 0.33-0.131 0.494v6.54c0 0.552 0.448 1 1 1 0.182 0 0.352-0.049 0.494-0.131z"></path>
</symbol>
<symbol id="icon-sms_failed" viewBox="0 0 24 24">
<path d="M12.984 9.984v-3.984h-1.969v3.984h1.969zM12.984 14.016v-2.016h-1.969v2.016h1.969zM20.016 2.016q0.797 0 1.383 0.586t0.586 1.383v12q0 0.797-0.586 1.406t-1.383 0.609h-14.016l-3.984 3.984v-18q0-0.797 0.586-1.383t1.383-0.586h16.031z"></path>
</symbol>
<symbol id="icon-360" viewBox="0 0 24 24">
<path d="M12 6.984q4.125 0 7.055 1.477t2.93 3.539q0 1.547-1.664 2.789t-4.336 1.805v-2.063q1.828-0.469 2.93-1.195t1.102-1.336q0-0.563-0.938-1.242t-2.859-1.219-4.219-0.539-4.219 0.539-2.859 1.219-0.938 1.242q0 0.703 1.406 1.523t3.609 1.195v-2.719l3.984 3.984-3.984 4.031v-3.234q-3.094-0.516-5.039-1.805t-1.945-2.977q0-2.063 2.93-3.539t7.055-1.477z"></path>
</symbol>
<symbol id="icon-video_library" viewBox="0 0 24 24">
<path d="M12 14.484l6-4.5-6-4.5v9zM20.016 2.016q0.797 0 1.383 0.586t0.586 1.383v12q0 0.797-0.586 1.406t-1.383 0.609h-12q-0.797 0-1.406-0.609t-0.609-1.406v-12q0-0.797 0.609-1.383t1.406-0.586h12zM3.984 6v14.016h14.016v1.969h-14.016q-0.797 0-1.383-0.586t-0.586-1.383v-14.016h1.969z"></path>
</symbol>
<symbol id="icon-subscriptions" viewBox="0 0 24 24">
<path d="M15.984 15.984l-6-3.234v6.516zM21.984 12v8.016q0 0.797-0.586 1.383t-1.383 0.586h-16.031q-0.797 0-1.383-0.586t-0.586-1.383v-8.016q0-0.797 0.586-1.406t1.383-0.609h16.031q0.797 0 1.383 0.609t0.586 1.406zM18 2.016v1.969h-12v-1.969h12zM20.016 8.016h-16.031v-2.016h16.031v2.016z"></path>
</symbol>
<symbol id="icon-explore" viewBox="0 0 20 20">
<path d="M10 20c-5.523 0-10-4.477-10-10s4.477-10 10-10v0c5.523 0 10 4.477 10 10s-4.477 10-10 10v0zM7.88 7.88l-3.54 7.78 7.78-3.54 3.54-7.78-7.78 3.54zM10 11c-0.552 0-1-0.448-1-1s0.448-1 1-1v0c0.552 0 1 0.448 1 1s-0.448 1-1 1v0z"></path>
</symbol>
<symbol id="icon-add-outline" viewBox="0 0 20 20">
<path d="M11 9h4v2h-4v4h-2v-4h-4v-2h4v-4h2v4zM10 20c-5.523 0-10-4.477-10-10s4.477-10 10-10v0c5.523 0 10 4.477 10 10s-4.477 10-10 10v0zM10 18c4.418 0 8-3.582 8-8s-3.582-8-8-8v0c-4.418 0-8 3.582-8 8s3.582 8 8 8v0z"></path>
</symbol>
<symbol id="icon-game-controller" viewBox="0 0 20 20">
<path d="M19.444 9.361c-0.882-4.926-2.854-6.379-3.903-6.379-1.637 0-2.057 1.217-5.541 1.258-3.484-0.041-3.904-1.258-5.541-1.258-1.049 0-3.022 1.453-3.904 6.379-0.503 2.812-1.049 7.010 0.252 7.514 1.619 0.627 2.168-0.941 3.946-2.266 1.805-1.343 2.671-1.659 5.247-1.659s3.442 0.316 5.247 1.659c1.778 1.324 2.327 2.893 3.946 2.266 1.301-0.504 0.755-4.701 0.251-7.514zM6 10c-1.105 0-2-0.896-2-2s0.895-2 2-2 2 0.895 2 2c0 1.104-0.896 2-2 2zM13 10c-0.553 0-1-0.447-1-1s0.447-1 1-1c0.553 0 1 0.447 1 1s-0.447 1-1 1zM15 8c-0.553 0-1-0.447-1-1s0.447-1 1-1c0.553 0 1 0.447 1 1s-0.447 1-1 1z"></path>
</symbol>
<symbol id="icon-help-with-circle" viewBox="0 0 20 20">
<path d="M10 0.4c-5.302 0-9.6 4.298-9.6 9.6s4.298 9.6 9.6 9.6c5.301 0 9.6-4.298 9.6-9.601 0-5.301-4.299-9.599-9.6-9.599zM9.849 15.599h-0.051c-0.782-0.023-1.334-0.6-1.311-1.371 0.022-0.758 0.587-1.309 1.343-1.309l0.046 0.002c0.804 0.023 1.35 0.594 1.327 1.387-0.023 0.76-0.578 1.291-1.354 1.291zM13.14 9.068c-0.184 0.26-0.588 0.586-1.098 0.983l-0.562 0.387c-0.308 0.24-0.494 0.467-0.563 0.688-0.056 0.174-0.082 0.221-0.087 0.576v0.090h-2.145l0.006-0.182c0.027-0.744 0.045-1.184 0.354-1.547 0.485-0.568 1.555-1.258 1.6-1.287 0.154-0.115 0.283-0.246 0.379-0.387 0.225-0.311 0.324-0.555 0.324-0.793 0-0.334-0.098-0.643-0.293-0.916-0.188-0.266-0.545-0.398-1.061-0.398-0.512 0-0.863 0.162-1.072 0.496-0.216 0.341-0.325 0.7-0.325 1.067v0.092h-2.211l0.004-0.096c0.057-1.353 0.541-2.328 1.435-2.897 0.563-0.361 1.264-0.544 2.081-0.544 1.068 0 1.972 0.26 2.682 0.772 0.721 0.519 1.086 1.297 1.086 2.311-0.001 0.567-0.18 1.1-0.534 1.585z"></path>
</symbol>
<symbol id="icon-home" viewBox="0 0 20 20">
<path d="M18.672 11h-1.672v6c0 0.445-0.194 1-1 1h-4v-6h-4v6h-4c-0.806 0-1-0.555-1-1v-6h-1.672c-0.598 0-0.47-0.324-0.060-0.748l8.024-8.032c0.195-0.202 0.451-0.302 0.708-0.312 0.257 0.010 0.513 0.109 0.708 0.312l8.023 8.031c0.411 0.425 0.539 0.749-0.059 0.749z"></path>
</symbol>
<symbol id="icon-newspaper" viewBox="0 0 32 32">
<path d="M28 8v-4h-28v22c0 1.105 0.895 2 2 2h27c1.657 0 3-1.343 3-3v-17h-4zM26 26h-24v-20h24v20zM4 10h20v2h-20zM16 14h8v2h-8zM16 18h8v2h-8zM16 22h6v2h-6zM4 14h10v10h-10z"></path>
</symbol>
<symbol id="icon-music" viewBox="0 0 32 32">
<path d="M30 0h2v23c0 2.761-3.134 5-7 5s-7-2.239-7-5c0-2.761 3.134-5 7-5 1.959 0 3.729 0.575 5 1.501v-11.501l-16 3.556v15.444c0 2.761-3.134 5-7 5s-7-2.239-7-5c0-2.761 3.134-5 7-5 1.959 0 3.729 0.575 5 1.501v-19.501l18-4z"></path>
</symbol>
<symbol id="icon-film" viewBox="0 0 32 32">
<path d="M0 4v24h32v-24h-32zM6 26h-4v-4h4v4zM6 18h-4v-4h4v4zM6 10h-4v-4h4v4zM24 26h-16v-20h16v20zM30 26h-4v-4h4v4zM30 18h-4v-4h4v4zM30 10h-4v-4h4v4zM12 10v12l8-6z"></path>
</symbol>
<symbol id="icon-feed" viewBox="0 0 32 32">
<path d="M12 16c0-2.209 1.791-4 4-4s4 1.791 4 4c0 2.209-1.791 4-4 4s-4-1.791-4-4zM20.761 7.204c3.12 1.692 5.239 4.997 5.239 8.796s-2.119 7.104-5.239 8.796c1.377-2.191 2.239-5.321 2.239-8.796s-0.862-6.605-2.239-8.796zM9 16c0 3.475 0.862 6.605 2.239 8.796-3.12-1.692-5.239-4.997-5.239-8.796s2.119-7.104 5.239-8.796c-1.377 2.191-2.239 5.321-2.239 8.796zM3 16c0 5.372 1.7 10.193 4.395 13.491-4.447-2.842-7.395-7.822-7.395-13.491s2.948-10.649 7.395-13.491c-2.695 3.298-4.395 8.119-4.395 13.491zM24.605 2.509c4.447 2.842 7.395 7.822 7.395 13.491s-2.948 10.649-7.395 13.491c2.695-3.298 4.395-8.119 4.395-13.491s-1.7-10.193-4.395-13.491z"></path>
</symbol>
<symbol id="icon-history" viewBox="0 0 34 32">
<path d="M20 2c7.732 0 14 6.268 14 14s-6.268 14-14 14v-3c2.938 0 5.701-1.144 7.778-3.222s3.222-4.84 3.222-7.778c0-2.938-1.144-5.701-3.222-7.778s-4.84-3.222-7.778-3.222c-2.938 0-5.701 1.144-7.778 3.222-1.598 1.598-2.643 3.601-3.041 5.778h5.819l-7 8-7-8h5.143c0.971-6.784 6.804-12 13.857-12zM26 14v4h-8v-10h4v6z"></path>
</symbol>
<symbol id="icon-clock" viewBox="0 0 32 32">
<path d="M20.586 23.414l-6.586-6.586v-8.828h4v7.172l5.414 5.414zM16 0c-8.837 0-16 7.163-16 16s7.163 16 16 16 16-7.163 16-16-7.163-16-16-16zM16 28c-6.627 0-12-5.373-12-12s5.373-12 12-12c6.627 0 12 5.373 12 12s-5.373 12-12 12z"></path>
</symbol>
<symbol id="icon-cog" viewBox="0 0 32 32">
<path d="M29.181 19.070c-1.679-2.908-0.669-6.634 2.255-8.328l-3.145-5.447c-0.898 0.527-1.943 0.829-3.058 0.829-3.361 0-6.085-2.742-6.085-6.125h-6.289c0.008 1.044-0.252 2.103-0.811 3.070-1.679 2.908-5.411 3.897-8.339 2.211l-3.144 5.447c0.905 0.515 1.689 1.268 2.246 2.234 1.676 2.903 0.672 6.623-2.241 8.319l3.145 5.447c0.895-0.522 1.935-0.82 3.044-0.82 3.35 0 6.067 2.725 6.084 6.092h6.289c-0.003-1.034 0.259-2.080 0.811-3.038 1.676-2.903 5.399-3.894 8.325-2.219l3.145-5.447c-0.899-0.515-1.678-1.266-2.232-2.226zM16 22.479c-3.578 0-6.479-2.901-6.479-6.479s2.901-6.479 6.479-6.479c3.578 0 6.479 2.901 6.479 6.479s-2.901 6.479-6.479 6.479z"></path>
</symbol>
<symbol id="icon-trophy" viewBox="0 0 32 32">
<path d="M26 6v-4h-20v4h-6v4c0 3.314 2.686 6 6 6 0.627 0 1.232-0.096 1.801-0.275 1.443 2.063 3.644 3.556 6.199 4.075v6.2h-2c-2.209 0-4 1.791-4 4h16c0-2.209-1.791-4-4-4h-2v-6.2c2.555-0.519 4.756-2.012 6.199-4.075 0.568 0.179 1.173 0.275 1.801 0.275 3.314 0 6-2.686 6-6v-4h-6zM6 13.625c-1.999 0-3.625-1.626-3.625-3.625v-2h3.625v2c0 1.256 0.232 2.457 0.655 3.565-0.213 0.039-0.431 0.060-0.655 0.060zM29.625 10c0 1.999-1.626 3.625-3.625 3.625-0.224 0-0.442-0.021-0.655-0.060 0.423-1.107 0.655-2.309 0.655-3.565v-2h3.625v2z"></path>
</symbol>
<symbol id="icon-flag" viewBox="0 0 32 32">
<path d="M0 0h4v32h-4v-32z"></path>
<path d="M26 20.094c2.582 0 4.83-0.625 6-1.547v-16c-1.17 0.922-3.418 1.547-6 1.547s-4.83-0.625-6-1.547v16c1.17 0.922 3.418 1.547 6 1.547z"></path>
<path d="M19 1.016c-1.466-0.623-3.61-1.016-6-1.016-3.012 0-5.635 0.625-7 1.547v16c1.365-0.922 3.988-1.547 7-1.547 2.39 0 4.534 0.393 6 1.016v-16z"></path>
</symbol>
<symbol id="icon-play2" viewBox="0 0 32 32">
<path d="M16 0c-8.837 0-16 7.163-16 16s7.163 16 16 16 16-7.163 16-16-7.163-16-16-16zM16 29c-7.18 0-13-5.82-13-13s5.82-13 13-13 13 5.82 13 13-5.82 13-13 13zM12 9l12 7-12 7z"></path>
</symbol>
</defs>
</svg>
